<svg id="visual" viewBox="0 0 960 540" width="960" height="540" xmlns="http://www.w3.org/2000/svg" xmlns:xlink="http://www.w3.org/1999/xlink" version="1.1"><rect x="0" y="0" width="960" height="540" fill="#dbdbdb"></rect><path d="M0 296L16 308.5C32 321 64 346 96 345.8C128 345.7 160 320.3 192 314.7C224 309 256 323 288 331.3C320 339.7 352 342.3 384 343.3C416 344.3 448 343.7 480 342.3C512 341 544 339 576 338C608 337 640 337 672 330.7C704 324.3 736 311.7 768 315C800 318.3 832 337.7 864 344.7C896 351.7 928 346.3 944 343.7L960 341L960 541L944 541C928 541 896 541 864 541C832 541 800 541 768 541C736 541 704 541 672 541C640 541 608 541 576 541C544 541 512 541 480 541C448 541 416 541 384 541C352 541 320 541 288 541C256 541 224 541 192 541C160 541 128 541 96 541C64 541 32 541 16 541L0 541Z" fill="#6325c0"></path><path d="M0 353L16 357.7C32 362.3 64 371.7 96 365C128 358.3 160 335.7 192 325.2C224 314.7 256 316.3 288 321.7C320 327 352 336 384 342.7C416 349.3 448 353.7 480 350.2C512 346.7 544 335.3 576 330.2C608 325 640 326 672 329.3C704 332.7 736 338.3 768 344.8C800 351.3 832 358.7 864 355.8C896 353 928 340 944 333.5L960 327L960 541L944 541C928 541 896 541 864 541C832 541 800 541 768 541C736 541 704 541 672 541C640 541 608 541 576 541C544 541 512 541 480 541C448 541 416 541 384 541C352 541 320 541 288 541C256 541 224 541 192 541C160 541 128 541 96 541C64 541 32 541 16 541L0 541Z" fill="#6020c2"></path><path d="M0 362L16 371C32 380 64 398 96 397C128 396 160 376 192 369.3C224 362.7 256 369.3 288 370.7C320 372 352 368 384 372.7C416 377.3 448 390.7 480 389.5C512 388.3 544 372.7 576 370.7C608 368.7 640 380.3 672 389.2C704 398 736 404 768 400.3C800 396.7 832 383.3 864 378.8C896 374.3 928 378.7 944 380.8L960 383L960 541L944 541C928 541 896 541 864 541C832 541 800 541 768 541C736 541 704 541 672 541C640 541 608 541 576 541C544 541 512 541 480 541C448 541 416 541 384 541C352 541 320 541 288 541C256 541 224 541 192 541C160 541 128 541 96 541C64 541 32 541 16 541L0 541Z" fill="#5c1ac4"></path><path d="M0 452L16 446.5C32 441 64 430 96 423.2C128 416.3 160 413.7 192 417C224 420.3 256 429.7 288 428.5C320 427.3 352 415.7 384 411C416 406.3 448 408.7 480 414.8C512 421 544 431 576 436.8C608 442.7 640 444.3 672 443C704 441.7 736 437.3 768 431.7C800 426 832 419 864 413.5C896 408 928 404 944 402L960 400L960 541L944 541C928 541 896 541 864 541C832 541 800 541 768 541C736 541 704 541 672 541C640 541 608 541 576 541C544 541 512 541 480 541C448 541 416 541 384 541C352 541 320 541 288 541C256 541 224 541 192 541C160 541 128 541 96 541C64 541 32 541 16 541L0 541Z" fill="#5813c6"></path><path d="M0 455L16 454.8C32 454.7 64 454.3 96 459C128 463.7 160 473.3 192 475.5C224 477.7 256 472.3 288 465.8C320 459.3 352 451.7 384 452.3C416 453 448 462 480 462.3C512 462.7 544 454.3 576 448.7C608 443 640 440 672 445.2C704 450.3 736 463.7 768 469C800 474.3 832 471.7 864 467C896 462.3 928 455.7 944 452.3L960 449L960 541L944 541C928 541 896 541 864 541C832 541 800 541 768 541C736 541 704 541 672 541C640 541 608 541 576 541C544 541 512 541 480 541C448 541 416 541 384 541C352 541 320 541 288 541C256 541 224 541 192 541C160 541 128 541 96 541C64 541 32 541 16 541L0 541Z" fill="#540bc8"></path><path d="M0 483L16 486.2C32 489.3 64 495.7 96 497.3C128 499 160 496 192 491.8C224 487.7 256 482.3 288 481.5C320 480.7 352 484.3 384 483.5C416 482.7 448 477.3 480 480.7C512 484 544 496 576 497.5C608 499 640 490 672 490.2C704 490.3 736 499.7 768 498.3C800 497 832 485 864 478.8C896 472.7 928 472.3 944 472.2L960 472L960 541L944 541C928 541 896 541 864 541C832 541 800 541 768 541C736 541 704 541 672 541C640 541 608 541 576 541C544 541 512 541 480 541C448 541 416 541 384 541C352 541 320 541 288 541C256 541 224 541 192 541C160 541 128 541 96 541C64 541 32 541 16 541L0 541Z" fill="#5000ca"></path></svg>